<svg width="10" height="8" viewBox="0 0 18 17" fill="none" xmlns="http://www.w3.org/2000/svg">
<path d="M4.18995 5.46191H0.576425C0.416051 5.46191 0.286102 5.58497 0.286102 5.73671V16.7248C0.286102 16.8766 0.416051 16.9996 0.576425 16.9996H4.18995C4.35033 16.9996 4.48028 16.8766 4.48028 16.7248V5.73671C4.48028 5.58497 4.35033 5.46191 4.18995 5.46191Z" fill="#E3B921"/>
<path d="M2.38448 0C1.06966 0 0 1.01138 0 2.25452C0 3.49821 1.06966 4.50997 2.38448 4.50997C3.69824 4.50997 4.76704 3.49816 4.76704 2.25452C4.7671 1.01138 3.69824 0 2.38448 0Z" fill="#E3B921"/>
<path d="M13.3812 5.18848C11.9299 5.18848 10.857 5.77902 10.2063 6.45003V5.73637C10.2063 5.58463 10.0764 5.46157 9.91598 5.46157H6.45539C6.29502 5.46157 6.16507 5.58463 6.16507 5.73637V16.7244C6.16507 16.8762 6.29502 16.9992 6.45539 16.9992H10.061C10.2214 16.9992 10.3513 16.8762 10.3513 16.7244V11.2879C10.3513 9.45591 10.8771 8.7422 12.2262 8.7422C13.6956 8.7422 13.8124 9.88636 13.8124 11.3822V16.7245C13.8124 16.8763 13.9423 16.9993 14.1027 16.9993H17.7097C17.8701 16.9993 18 16.8763 18 16.7245V10.6974C18 7.97325 17.4512 5.18848 13.3812 5.18848Z" fill="#E3B921"/>
</svg>
