<svg width="38" height="31" viewBox="0 0 38 31" fill="none" xmlns="http://www.w3.org/2000/svg">
<path d="M17.984 0.239998L17.984 2.736C15.232 3.184 12.992 4.336 11.264 6.192C9.53602 8.048 8.67202 10.288 8.67202 12.912C8.67202 14.832 9.40802 16.464 10.88 17.808C12.352 19.152 14.368 20.016 16.928 20.4L16.928 23.088C15.392 23.92 14.144 24.88 13.184 25.968C12.288 27.056 11.392 28.464 10.496 30.192C7.48802 29.168 5.08802 27.632 3.29602 25.584C1.50402 23.472 0.608023 20.848 0.608023 17.712C0.608024 14.768 1.31202 12.016 2.72002 9.456C4.19203 6.896 6.20803 4.784 8.76803 3.12C11.392 1.392 14.464 0.431999 17.984 0.239998ZM37.952 0.240001L37.952 2.736C35.2 3.184 32.96 4.336 31.232 6.192C29.504 8.048 28.64 10.288 28.64 12.912C28.64 14.832 29.376 16.464 30.848 17.808C32.32 19.152 34.336 20.016 36.896 20.4L36.896 23.088C35.36 23.92 34.112 24.88 33.152 25.968C32.256 27.056 31.36 28.464 30.464 30.192C27.456 29.168 25.056 27.632 23.264 25.584C21.472 23.472 20.576 20.848 20.576 17.712C20.576 14.768 21.28 12.016 22.688 9.456C24.16 6.896 26.176 4.784 28.736 3.12C31.36 1.392 34.432 0.432002 37.952 0.240001Z" fill="#edbe44"/>
</svg>
