<svg width="39" height="32" viewBox="0 0 39 32" fill="none" xmlns="http://www.w3.org/2000/svg">
<path d="M20.7745 31.1494L20.7284 28.6538C23.4717 28.1551 25.69 26.9619 27.3835 25.0743C29.0769 23.1867 29.8994 20.9312 29.851 18.3076C29.8155 16.3879 29.0495 14.7698 27.553 13.4532C26.0564 12.1366 24.0248 11.31 21.4582 10.9733L21.4086 8.28576C22.9289 7.42554 24.159 6.44267 25.0988 5.33714C25.9745 4.23278 26.8444 2.80848 27.7083 1.06424C30.7347 2.03254 33.1627 3.52398 34.9922 5.53855C36.8228 7.61711 37.7671 10.2241 37.825 13.3596C37.8794 16.3031 37.2263 19.0676 35.8658 21.6532C34.4413 24.2399 32.4646 26.3888 29.9358 28.0997C27.3441 29.8759 24.2903 30.8924 20.7745 31.1494ZM0.809886 31.5179L0.763812 29.0224C3.50707 28.5236 5.72543 27.3305 7.41887 25.4429C9.11232 23.5553 9.93482 21.2998 9.88639 18.6762C9.85095 16.7565 9.08495 15.1384 7.58839 13.8218C6.09183 12.5052 4.06022 11.6786 1.49357 11.3419L1.44395 8.65434C2.96433 7.79413 4.1944 6.81126 5.13415 5.70572C6.00992 4.60137 6.87977 3.17707 7.74372 1.43283C10.7701 2.40113 13.1981 3.89256 15.0276 5.90714C16.8582 7.9857 17.8025 10.5927 17.8604 13.7282C17.9148 16.6717 17.2617 19.4362 15.9012 22.0218C14.4767 24.6085 12.5 26.7573 9.97115 28.4683C7.3795 30.2445 4.32574 31.261 0.809886 31.5179Z" fill="#24384A"/>
</svg>
